<mxfile host="65bd71144e">
    <diagram id="swW6ewhRUHfShvovAfJu" name="Page-1">
        <mxGraphModel dx="774" dy="523" grid="1" gridSize="10" guides="1" tooltips="1" connect="1" arrows="1" fold="1" page="1" pageScale="1" pageWidth="827" pageHeight="1169" math="0" shadow="0">
            <root>
                <mxCell id="0"/>
                <mxCell id="1" parent="0"/>
                <mxCell id="2" value="Database" parent="0"/>
                <mxCell id="5" value="" style="group" vertex="1" connectable="0" parent="2">
                    <mxGeometry x="80" y="65" width="480" height="520" as="geometry"/>
                </mxCell>
                <mxCell id="3" value="" style="rounded=0;whiteSpace=wrap;html=1;" vertex="1" parent="5">
                    <mxGeometry width="480" height="500" as="geometry"/>
                </mxCell>
                <mxCell id="4" value="storageAccount:&amp;nbsp;&lt;span style=&quot;color: rgb(206, 145, 120); background-color: rgb(30, 30, 30); font-family: Menlo, Monaco, &amp;quot;Courier New&amp;quot;, monospace;&quot;&gt;pocshoppinglistsc&lt;/span&gt;" style="text;html=1;align=center;verticalAlign=middle;resizable=0;points=[];autosize=1;strokeColor=none;fillColor=none;" vertex="1" parent="5">
                    <mxGeometry width="240" height="30" as="geometry"/>
                </mxCell>
                <mxCell id="6" value="" style="group" vertex="1" connectable="0" parent="5">
                    <mxGeometry x="20" y="30" width="460" height="490" as="geometry"/>
                </mxCell>
                <mxCell id="7" value="" style="rounded=0;whiteSpace=wrap;html=1;" vertex="1" parent="6">
                    <mxGeometry width="430.00000000000006" height="450.00000000000006" as="geometry"/>
                </mxCell>
                <mxCell id="8" value="databaseAccount:&amp;nbsp;&lt;span style=&quot;color: rgb(206, 145, 120); background-color: rgb(30, 30, 30); font-family: Menlo, Monaco, &amp;quot;Courier New&amp;quot;, monospace;&quot;&gt;pocshoppinglistdb&lt;/span&gt;" style="text;html=1;align=center;verticalAlign=middle;resizable=0;points=[];autosize=1;strokeColor=none;fillColor=none;" vertex="1" parent="6">
                    <mxGeometry x="-4.479166666666667" width="250" height="30" as="geometry"/>
                </mxCell>
                <mxCell id="9" value="" style="group" vertex="1" connectable="0" parent="6">
                    <mxGeometry x="40" y="30" width="405" height="420" as="geometry"/>
                </mxCell>
                <mxCell id="10" value="" style="rounded=0;whiteSpace=wrap;html=1;" vertex="1" parent="9">
                    <mxGeometry x="-20" width="390" height="400" as="geometry"/>
                </mxCell>
                <mxCell id="11" value="sqlDatabase:&amp;nbsp;&lt;span style=&quot;color: rgb(206, 145, 120); background-color: rgb(30, 30, 30); font-family: Menlo, Monaco, &amp;quot;Courier New&amp;quot;, monospace;&quot;&gt;pocshoppinglistdb/&lt;/span&gt;&lt;span style=&quot;color: rgb(206, 145, 120); background-color: rgb(30, 30, 30); font-family: Menlo, Monaco, &amp;quot;Courier New&amp;quot;, monospace;&quot;&gt;ShoppingList&lt;/span&gt;" style="text;html=1;align=center;verticalAlign=middle;resizable=0;points=[];autosize=1;strokeColor=none;fillColor=none;" vertex="1" parent="9">
                    <mxGeometry x="-20.004166666666663" width="310" height="30" as="geometry"/>
                </mxCell>
                <mxCell id="12" value="" style="group" vertex="1" connectable="0" parent="9">
                    <mxGeometry y="30" width="405" height="350" as="geometry"/>
                </mxCell>
                <mxCell id="16" value="" style="group" vertex="1" connectable="0" parent="12">
                    <mxGeometry width="336.6265274508245" height="349.99999999999994" as="geometry"/>
                </mxCell>
                <mxCell id="13" value="" style="rounded=0;whiteSpace=wrap;html=1;" vertex="1" parent="16">
                    <mxGeometry width="336.6265274508245" height="349.99999999999994" as="geometry"/>
                </mxCell>
                <mxCell id="14" value="container:&amp;nbsp;&lt;span style=&quot;color: rgb(206, 145, 120); background-color: rgb(30, 30, 30); font-family: Menlo, Monaco, &amp;quot;Courier New&amp;quot;, monospace;&quot;&gt;pocshoppinglistdb/&lt;/span&gt;&lt;span style=&quot;color: rgb(206, 145, 120); background-color: rgb(30, 30, 30); font-family: Menlo, Monaco, &amp;quot;Courier New&amp;quot;, monospace;&quot;&gt;ShoppingList/&lt;br&gt;&lt;/span&gt;&lt;span style=&quot;color: rgb(206, 145, 120); background-color: rgb(30, 30, 30); font-family: Menlo, Monaco, &amp;quot;Courier New&amp;quot;, monospace;&quot;&gt;ShoppingListContainer&lt;/span&gt;" style="text;html=1;align=center;verticalAlign=middle;resizable=0;points=[];autosize=1;strokeColor=none;fillColor=none;" vertex="1" parent="16">
                    <mxGeometry x="-0.004211856434837458" y="0.0030303030303020506" width="300" height="40" as="geometry"/>
                </mxCell>
            </root>
        </mxGraphModel>
    </diagram>
</mxfile>